<?xml version="1.0" encoding="UTF-8"?>
<!DOCTYPE svg PUBLIC "-//W3C//DTD SVG 1.1//EN" "http://www.w3.org/Graphics/SVG/1.1/DTD/svg11.dtd">
<svg xmlns="http://www.w3.org/2000/svg" version="1.1" width="512px" height="512px" style="shape-rendering:geometricPrecision; text-rendering:geometricPrecision; image-rendering:optimizeQuality; fill-rule:evenodd; clip-rule:evenodd" xmlns:xlink="http://www.w3.org/1999/xlink">
<g><path style="opacity:0.892" fill="#ffffff" d="M 91.5,63.5 C 102.86,62.71 106.193,67.5434 101.5,78C 90.9641,81.997 86.4641,78.497 88,67.5C 88.6897,65.6498 89.8564,64.3164 91.5,63.5 Z"/></g>
<g><path style="opacity:0.892" fill="#ffffff" d="M 379.5,63.5 C 390.86,62.71 394.193,67.5434 389.5,78C 378.964,81.997 374.464,78.497 376,67.5C 376.69,65.6498 377.856,64.3164 379.5,63.5 Z"/></g>
<g><path style="opacity:0.931" fill="#ffffff" d="M 237.5,95.5 C 294.687,91.028 341.854,110.361 379,153.5C 408.918,123.195 445.085,109.695 487.5,113C 489.929,116.422 490.929,120.256 490.5,124.5C 489.844,152.633 481.677,178.299 466,201.5C 457.232,212.938 447.732,223.771 437.5,234C 441.667,249.167 445.833,264.333 450,279.5C 450.667,282.167 450.667,284.833 450,287.5C 441.833,297 433,305.833 423.5,314C 416.807,315.573 411.641,313.406 408,307.5C 380.682,376.125 330.015,412.125 256,415.5C 232.739,415.976 210.573,411.309 189.5,401.5C 173.373,411.157 156.373,418.99 138.5,425C 126.645,428.622 114.645,429.288 102.5,427C 88.4887,420.987 81.822,410.32 82.5,395C 83.462,378.653 87.6287,363.153 95,348.5C 99.3245,339.182 104.158,330.182 109.5,321.5C 83.6175,257.533 92.7841,199.2 137,146.5C 164.62,117.94 198.12,100.94 237.5,95.5 Z M 363.5,162.5 C 348.267,158.812 333.1,154.812 318,150.5C 315.755,151.137 313.588,151.97 311.5,153C 304,160.5 296.5,168 289,175.5C 285.667,179.833 285.667,184.167 289,188.5C 298.167,197.667 307.333,206.833 316.5,216C 307.205,223.46 307.205,230.96 316.5,238.5C 301.624,255.271 293.458,274.938 292,297.5C 260.216,329.306 225.55,357.306 188,381.5C 149.326,360.134 124.992,327.801 115,284.5C 105.248,220.185 127.082,169.685 180.5,133C 235.195,103.112 288.528,105.445 340.5,140C 349.334,146.335 357.001,153.835 363.5,162.5 Z M 464.5,128.5 C 467.5,128.5 470.5,128.5 473.5,128.5C 471.554,153.176 463.388,175.51 449,195.5C 424.362,221.139 399.362,246.472 374,271.5C 359.667,257.167 345.333,242.833 331,228.5C 330.333,227.833 330.333,227.167 331,226.5C 356.558,200.274 382.724,174.774 409.5,150C 426.315,138.787 444.648,131.62 464.5,128.5 Z M 423.5,168.5 C 430.673,168.853 433.506,172.52 432,179.5C 428.042,184.436 423.709,184.769 419,180.5C 416.828,175.17 418.328,171.17 423.5,168.5 Z M 319.5,169.5 C 331.037,171.678 342.371,174.678 353.5,178.5C 345.514,186.986 337.348,195.319 329,203.5C 321.833,196.333 314.667,189.167 307.5,182C 311.704,177.964 315.704,173.798 319.5,169.5 Z M 422.5,247.5 C 426.274,258.238 429.607,269.238 432.5,280.5C 428.5,285.167 424.167,289.5 419.5,293.5C 412.167,286.833 405.167,279.833 398.5,272.5C 406.521,264.146 414.521,255.813 422.5,247.5 Z M 328.5,250.5 C 336.146,257.479 343.479,264.812 350.5,272.5C 339.025,283.572 325.358,289.739 309.5,291C 312.496,275.846 318.829,262.346 328.5,250.5 Z M 362.5,284.5 C 364.963,286.461 367.297,288.628 369.5,291C 372.8,292.879 376.134,292.879 379.5,291C 381.35,288.982 383.35,287.149 385.5,285.5C 388.701,287.866 391.367,290.7 393.5,294C 374.41,353.426 334.076,388.093 272.5,398C 250.223,400.668 228.556,398.001 207.5,390C 241.837,366.347 273.837,339.68 303.5,310C 322.127,308.569 339.127,302.569 354.5,292C 357.432,289.715 360.098,287.215 362.5,284.5 Z M 118.5,339.5 C 132.308,360.807 149.974,378.307 171.5,392C 98.2283,430.562 80.5617,413.062 118.5,339.5 Z"/></g>
<g><path style="opacity:0.931" fill="#ffffff" d="M 417.5,152.5 C 439.641,150.477 450.141,160.477 449,182.5C 443.775,196.702 433.608,202.535 418.5,200C 402.869,193.236 397.702,181.736 403,165.5C 406.329,159.43 411.162,155.096 417.5,152.5 Z M 423.5,168.5 C 418.328,171.17 416.828,175.17 419,180.5C 423.709,184.769 428.042,184.436 432,179.5C 433.506,172.52 430.673,168.853 423.5,168.5 Z"/></g>
<g><path style="opacity:0.932" fill="#ffffff" d="M 32.5,167.5 C 47.367,165.012 57.5337,170.678 63,184.5C 65.9816,199.376 60.4816,209.543 46.5,215C 31.6239,217.982 21.4572,212.482 16,198.5C 13.1465,183.533 18.6465,173.199 32.5,167.5 Z M 36.5,184.5 C 45.8504,184.365 48.517,188.532 44.5,197C 35.9562,200.322 32.1229,197.489 33,188.5C 33.6897,186.65 34.8564,185.316 36.5,184.5 Z"/></g>
<g><path style="opacity:0.892" fill="#ffffff" d="M 451.5,379.5 C 462.86,378.71 466.193,383.543 461.5,394C 450.964,397.997 446.464,394.497 448,383.5C 448.69,381.65 449.856,380.316 451.5,379.5 Z"/></g>
<g><path style="opacity:0.892" fill="#ffffff" d="M 307.5,471.5 C 318.86,470.71 322.193,475.543 317.5,486C 306.964,489.997 302.464,486.497 304,475.5C 304.69,473.65 305.856,472.316 307.5,471.5 Z"/></g>
</svg>
